<?xml version="1.0" encoding="UTF-8"?>
<svg xmlns="http://www.w3.org/2000/svg" xmlns:xlink="http://www.w3.org/1999/xlink" width="46px" height="46px" viewBox="0 0 46 46" version="1.1">
<g id="surface1">
<path style=" stroke:none;fill-rule:nonzero;fill:rgb(0%,0%,0%);fill-opacity:1;" d="M 23 0 C 10.296875 0 0 10.296875 0 23 C 0 35.703125 10.296875 46 23 46 C 35.703125 46 46 35.703125 46 23 C 46 10.296875 35.703125 0 23 0 Z M 34.957031 14.546875 L 30.871094 34.050781 C 30.769531 34.527344 30.429688 34.925781 29.972656 35.101562 C 29.515625 35.273438 29 35.203125 28.609375 34.914062 L 22.667969 30.519531 L 19.066406 33.917969 C 18.96875 34.007812 18.84375 34.058594 18.714844 34.050781 C 18.582031 34.046875 18.460938 33.988281 18.371094 33.894531 L 18.292969 33.808594 L 18.917969 27.753906 L 30.195312 17.453125 C 30.308594 17.347656 30.320312 17.171875 30.230469 17.046875 C 30.132812 16.921875 29.960938 16.890625 29.828125 16.976562 L 15.40625 26.101562 L 9.199219 24.015625 C 8.863281 23.902344 8.632812 23.585938 8.625 23.230469 C 8.617188 22.875 8.835938 22.550781 9.171875 22.425781 L 33.46875 13.273438 C 33.847656 13.128906 34.277344 13.207031 34.585938 13.46875 C 34.898438 13.738281 35.039062 14.148438 34.957031 14.546875 Z M 34.957031 14.546875 "/>
</g>
</svg>
